<svg data-v-fde0c5aa="" xmlns="http://www.w3.org/2000/svg" viewBox="0 0 300 300" class="iconLeft"><!----><defs data-v-fde0c5aa=""><!----></defs><rect data-v-fde0c5aa="" fill="transparent" x="0" y="0" width="300px" height="300px" class="logo-background-square"></rect><defs data-v-fde0c5aa=""><!----></defs><g data-v-fde0c5aa="" id="c3362d07-2b79-46a9-962b-411982d915cb" fill="#000000" transform="matrix(2.155466384808423,0,0,2.155466384808423,81.67826465892882,138.2311535209594)"><path d="M2.45 10.50L2.45 0.42L1.12 0.42L1.12 10.50ZM6.02 10.50L6.02 0.42L4.69 0.42L4.69 10.50ZM7.84 5.46C7.84 8.36 9.56 10.71 12.64 10.71C15.71 10.71 17.43 8.36 17.43 5.46C17.43 2.56 15.71 0.21 12.64 0.21C9.56 0.21 7.84 2.56 7.84 5.46ZM9.24 5.46C9.24 3.12 10.54 1.33 12.64 1.33C14.73 1.33 16.03 3.12 16.03 5.46C16.03 7.80 14.73 9.59 12.64 9.59C10.40 9.59 9.24 7.80 9.24 5.46ZM22.71 10.50L22.71 1.61L26.10 1.61L26.10 0.42L17.99 0.42L17.99 1.61L21.38 1.61L21.38 10.50ZM30.97 7.28C31.12 9.56 32.63 10.71 35.17 10.71C36.95 10.71 38.88 9.77 38.88 7.71C38.88 6.17 37.87 5.43 36.40 5.01C35.43 4.75 33.95 4.33 33.49 4.14C32.91 3.93 32.63 3.50 32.63 2.98C32.63 1.81 33.81 1.33 34.86 1.33C36.36 1.33 37.10 2.11 37.23 3.40L38.57 3.30C38.43 1.20 37.04 0.21 34.80 0.21C33.11 0.21 31.35 1.15 31.35 3.07C31.35 4.02 31.61 4.89 33.42 5.47C34.02 5.67 35.81 6.09 36.34 6.30C37.13 6.61 37.45 7.14 37.45 7.78C37.45 8.86 36.57 9.59 35.11 9.59C33.53 9.59 32.40 8.78 32.28 7.17L30.97 7.28ZM43.39 9.44C43.16 9.51 42.95 9.52 42.81 9.52C42.15 9.52 42.15 9.07 42.15 8.44L42.15 4.19L43.40 4.19L43.40 3.22L42.15 3.22L42.15 0.70L40.89 1.30L40.89 3.22L39.86 3.22L39.86 4.19L40.89 4.19L40.89 8.37C40.89 9.80 41.08 10.64 42.60 10.64C42.87 10.64 43.25 10.58 43.53 10.50ZM46.26 10.50L46.26 6.57C46.26 5.15 46.86 4.20 48.06 4.20C48.50 4.20 48.75 4.31 49.03 4.51L49.41 3.40C49.07 3.14 48.68 3.01 48.12 3.01C47.21 3.01 46.59 3.50 46.13 4.48L46.13 3.22L45.00 3.22L45.00 10.50ZM56.45 7.18C56.46 7.08 56.46 6.76 56.46 6.72C56.46 4.61 55.36 3.01 53.16 3.01C51.14 3.01 49.83 4.45 49.83 6.86C49.83 9.27 51.14 10.71 53.16 10.71C54.74 10.71 55.94 9.91 56.36 8.29L55.17 8.04C54.92 9.13 54.08 9.66 53.23 9.66C52.18 9.66 51.20 8.93 51.09 7.18ZM53.16 4.06C54.33 4.06 55.06 4.94 55.12 6.17L51.13 6.17C51.35 4.69 52.29 4.06 53.16 4.06ZM62.37 9.60C62.41 9.95 62.45 10.30 62.66 10.50L63.94 10.50C63.69 10.23 63.55 9.76 63.55 9.02L63.55 5.82C63.55 3.99 62.68 3.01 60.73 3.01C59.33 3.01 58.03 3.53 57.67 5.21L58.86 5.47C59.11 4.52 59.70 4.02 60.61 4.02C61.57 4.02 62.29 4.44 62.29 5.57L62.29 5.85C61.92 6.02 61.07 6.16 60.30 6.23C58.67 6.38 57.44 7.01 57.44 8.58C57.44 10.07 58.58 10.71 59.92 10.71C60.79 10.71 61.64 10.42 62.37 9.60ZM62.29 8.54C61.91 9.03 61.05 9.70 60.12 9.70C59.44 9.70 58.76 9.45 58.76 8.53C58.76 7.53 59.67 7.36 60.44 7.24C61.15 7.13 61.96 6.97 62.29 6.82ZM66.74 10.50L66.74 6.73C66.74 5.40 67.03 4.07 68.53 4.07C69.38 4.07 69.82 4.69 69.82 5.78L69.82 10.50L71.08 10.50L71.08 6.29C71.08 5.10 71.58 4.07 72.86 4.07C73.93 4.07 74.14 4.96 74.14 5.92L74.14 10.50L75.40 10.50L75.40 5.52C75.40 3.89 74.62 3.01 73.12 3.01C72.21 3.01 71.34 3.39 70.88 4.35C70.59 3.50 69.87 3.01 68.81 3.01C67.84 3.01 67.12 3.36 66.61 4.26L66.61 3.22L65.48 3.22L65.48 10.50ZM76.80 8.40C76.92 9.87 78.01 10.71 79.79 10.71C81.24 10.71 82.73 10.11 82.73 8.50C82.73 7.14 81.84 6.65 80.93 6.40L78.97 5.87C78.54 5.75 78.08 5.52 78.08 5.03C78.08 4.44 78.61 4.06 79.66 4.06C80.60 4.06 81.13 4.48 81.24 5.28L82.45 5.11C82.33 3.86 81.42 3.01 79.69 3.01C78.19 3.01 76.87 3.64 76.87 5.17C76.87 6.37 77.73 6.82 78.69 7.08L80.47 7.56C81.21 7.76 81.47 8.05 81.47 8.61C81.47 9.42 80.54 9.66 79.83 9.66C78.62 9.66 78.13 8.99 78.02 8.22L76.80 8.40Z"></path></g><defs data-v-fde0c5aa=""><linearGradient data-v-fde0c5aa="" gradientTransform="rotate(25)" id="e1dea587-43f9-401f-ac01-0987413295a1" x1="0%" y1="0%" x2="100%" y2="0%"><stop data-v-fde0c5aa="" offset="0%" stop-color="#006678" stop-opacity="1"></stop><stop data-v-fde0c5aa="" offset="100%" stop-color="#4FA8FF" stop-opacity="1"></stop></linearGradient></defs><g data-v-fde0c5aa="" id="dbf10e2e-a8a3-4bb8-8c21-8ea9c53eef9c" stroke="none" fill="url(#e1dea587-43f9-401f-ac01-0987413295a1)" transform="matrix(0.48483403784156487,0,0,0.48483403784156487,31.34511115367807,125.75613882241768)"><path d="M75.981 60a5.99 5.99 0 0 0-4.62 2.177l-10.517-6.071a11.849 11.849 0 0 0 0-10.212L73.13 38.8a4.221 4.221 0 1 0-.989-1.739l-12.295 7.1A11.994 11.994 0 0 0 51 39.05V26.91a6 6 0 1 0-2 0v12.14a11.994 11.994 0 0 0-8.847 5.11l-12.295-7.099A3.947 3.947 0 0 0 28.019 36a4.012 4.012 0 1 0-1.15 2.8l12.287 7.094a11.849 11.849 0 0 0 0 10.212L28.64 62.177a6.084 6.084 0 1 0 .997 1.735l10.517-6.072A11.994 11.994 0 0 0 49 62.95v14.192a4 4 0 1 0 2 0V62.949a11.994 11.994 0 0 0 8.847-5.11l10.516 6.073A5.996 5.996 0 1 0 75.981 60zm0-26a2 2 0 1 1-1.723 2.997l-.001-.002-.001-.001A1.977 1.977 0 0 1 73.98 36a2.002 2.002 0 0 1 2-2zm-51.962 4a2 2 0 1 1 2-2 2.002 2.002 0 0 1-2 2zm0 32a4 4 0 1 1 4-4 4.005 4.005 0 0 1-4 4zM46 21a4 4 0 1 1 4 4 4.005 4.005 0 0 1-4-4zm6 60a2 2 0 1 1-2-2 2.002 2.002 0 0 1 2 2zm-2-20a10 10 0 1 1 10-10 10.011 10.011 0 0 1-10 10zm25.981 9a4 4 0 1 1 4-4 4.005 4.005 0 0 1-4 4z"></path></g><!----></svg>